ffmpeg version 4.2.7-0ubuntu0.1 Copyright (c) 2000-2022 the FFmpeg developers
  built with gcc 9 (Ubuntu 9.4.0-1ubuntu1~20.04.1)
  configuration: --prefix=/usr --extra-version=0ubuntu0.1 --toolchain=hardened --libdir=/usr/lib/x86_64-linux-gnu --incdir=/usr/include/x86_64-linux-gnu --arch=amd64 --enable-gpl --disable-stripping --enable-avresample --disable-filter=resample --enable-avisynth --enable-gnutls --enable-ladspa --enable-libaom --enable-libass --enable-libbluray --enable-libbs2b --enable-libcaca --enable-libcdio --enable-libcodec2 --enable-libflite --enable-libfontconfig --enable-libfreetype --enable-libfribidi --enable-libgme --enable-libgsm --enable-libjack --enable-libmp3lame --enable-libmysofa --enable-libopenjpeg --enable-libopenmpt --enable-libopus --enable-libpulse --enable-librsvg --enable-librubberband --enable-libshine --enable-libsnappy --enable-libsoxr --enable-libspeex --enable-libssh --enable-libtheora --enable-libtwolame --enable-libvidstab --enable-libvorbis --enable-libvpx --enable-libwavpack --enable-libwebp --enable-libx265 --enable-libxml2 --enable-libxvid --enable-libzmq --enable-libzvbi --enable-lv2 --enable-omx --enable-openal --enable-opencl --enable-opengl --enable-sdl2 --enable-libdc1394 --enable-libdrm --enable-libiec61883 --enable-nvenc --enable-chromaprint --enable-frei0r --enable-libx264 --enable-shared
  libavutil      56. 31.100 / 56. 31.100
  libavcodec     58. 54.100 / 58. 54.100
  libavformat    58. 29.100 / 58. 29.100
  libavdevice    58.  8.100 / 58.  8.100
  libavfilter     7. 57.100 /  7. 57.100
  libavresample   4.  0.  0 /  4.  0.  0
  libswscale      5.  5.100 /  5.  5.100
  libswresample   3.  5.100 /  3.  5.100
  libpostproc    55.  5.100 / 55.  5.100
Routing option strict to both codec and muxer layer
[h264 @ 0x556125011740] Reinit context to 1920x1088, pix_fmt: yuv420p
Input #0, mov,mp4,m4a,3gp,3g2,mj2, from '/var/www/html/project/media/video/original/07974FEE-D29E-4C3E-B60F-C8CE54F0151C.mov':
  Metadata:
    major_brand     : qt  
    minor_version   : 0
    compatible_brands: qt  
    creation_time   : 2025-07-13T01:46:40.000000Z
  Duration: 00:00:57.38, start: 0.000000, bitrate: 14836 kb/s
    Stream #0:0(und): Audio: aac (LC) (mp4a / 0x6134706D), 48000 Hz, stereo, fltp, 129 kb/s (default)
    Metadata:
      creation_time   : 2025-07-13T01:46:40.000000Z
      handler_name    : Core Media Audio
    Stream #0:1(und): Video: h264 (High), 1 reference frame (avc1 / 0x31637661), yuv420p(tv, bt709, left), 1920x1080 (1920x1088), 14700 kb/s, 30.01 fps, 30 tbr, 600 tbn, 1200 tbc (default)
    Metadata:
      creation_time   : 2025-07-13T01:46:40.000000Z
      handler_name    : Core Media Video
      encoder         : H.264
Input #1, png_pipe, from '/var/www/html/project/static/images/templates/logo.png':
  Duration: N/A, bitrate: N/A
    Stream #1:0: Video: png, 1 reference frame, rgba(pc), 1920x1080 [SAR 2835:2835 DAR 16:9], 25 tbr, 25 tbn, 25 tbc
[Parsed_scale_0 @ 0x55612508f140] w:1920 h:1080 flags:'bilinear' interl:0
[Parsed_scale_2 @ 0x55612508cc40] w:1920 h:1080 flags:'bilinear' interl:0
Stream mapping:
  Stream #0:1 (h264) -> scale (graph 0)
  Stream #1:0 (png) -> scale (graph 0)
  overlay (graph 0) -> Stream #0:0 (libx264)
  Stream #0:0 -> #0:1 (aac (native) -> aac (native))
Press [q] to stop, [?] for help
[graph_1_in_0_0 @ 0x5561254143c0] tb:1/48000 samplefmt:fltp samplerate:48000 chlayout:0x3
[h264 @ 0x556125079180] Reinit context to 1920x1088, pix_fmt: yuv420p
[Parsed_scale_0 @ 0x556125098b80] w:1920 h:1080 flags:'bilinear' interl:0
[Parsed_scale_2 @ 0x5561254bd900] w:1920 h:1080 flags:'bilinear' interl:0
[graph 0 input from stream 0:1 @ 0x55612509a980] w:1920 h:1080 pixfmt:yuv420p tb:1/600 fr:30/1 sar:0/1 sws_param:flags=2
[graph 0 input from stream 1:0 @ 0x55612509b840] w:1920 h:1080 pixfmt:rgba tb:1/25 fr:25/1 sar:2835/2835 sws_param:flags=2
[Parsed_scale_0 @ 0x556125098b80] w:1920 h:1080 fmt:yuv420p sar:0/1 -> w:1920 h:1080 fmt:yuv420p sar:0/1 flags:0x2
[Parsed_setsar_1 @ 0x556126002f40] w:1920 h:1080 sar:0/1 dar:16/9 -> sar:1/1 dar:16/9
[Parsed_scale_2 @ 0x5561254bd900] w:1920 h:1080 fmt:rgba sar:2835/2835 -> w:1920 h:1080 fmt:yuva420p sar:1/1 flags:0x2
[Parsed_setsar_3 @ 0x5561260d4840] w:1920 h:1080 sar:1/1 dar:16/9 -> sar:1/1 dar:16/9
[Parsed_overlay_4 @ 0x556125099c00] main w:1920 h:1080 fmt:yuv420p overlay w:1920 h:1080 fmt:yuva420p
[Parsed_overlay_4 @ 0x556125099c00] [framesync @ 0x556125099d68] Selected 1/600 time base
[Parsed_overlay_4 @ 0x556125099c00] [framesync @ 0x556125099d68] Sync level 2
[libx264 @ 0x55612507d540] using SAR=1/1
[libx264 @ 0x55612507d540] using cpu capabilities: MMX2 SSE2Fast SSSE3 SSE4.2 AVX FMA3 BMI2 AVX2
[libx264 @ 0x55612507d540] profile High, level 4.0
[libx264 @ 0x55612507d540] 264 - core 155 r2917 0a84d98 - H.264/MPEG-4 AVC codec - Copyleft 2003-2018 - http://www.videolan.org/x264.html - options: cabac=1 ref=1 deblock=1:0:0 analyse=0x3:0x113 me=hex subme=2 psy=1 psy_rd=1.00:0.00 mixed_ref=0 me_range=16 chroma_me=1 trellis=0 8x8dct=1 cqm=0 deadzone=21,11 fast_pskip=1 chroma_qp_offset=0 threads=24 lookahead_threads=8 sliced_threads=0 nr=0 decimate=1 interlaced=0 bluray_compat=0 constrained_intra=0 bframes=3 b_pyramid=2 b_adapt=1 b_bias=0 direct=1 weightb=1 open_gop=0 weightp=1 keyint=250 keyint_min=25 scenecut=40 intra_refresh=0 rc_lookahead=10 rc=crf mbtree=1 crf=18.0 qcomp=0.60 qpmin=0 qpmax=69 qpstep=4 ip_ratio=1.40 aq=1:1.00
Output #0, mp4, to '/var/www/html/project/media/video/watermarks/07974FEE-D29E-4C3E-B60F-C8CE54F0151C.mp4':
  Metadata:
    major_brand     : qt  
    minor_version   : 0
    compatible_brands: qt  
    encoder         : Lavf58.29.100
    Stream #0:0: Video: h264 (libx264), 1 reference frame (avc1 / 0x31637661), yuv420p, 1920x1080 [SAR 1:1 DAR 16:9], q=-1--1, 30 fps, 15360 tbn, 30 tbc (default)
    Metadata:
      encoder         : Lavc58.54.100 libx264
    Side data:
      cpb: bitrate max/min/avg: 0/0/0 buffer size: 0 vbv_delay: -1
    Stream #0:1(und): Audio: aac (LC) (mp4a / 0x6134706D), 48000 Hz, stereo, fltp, delay 1024, 128 kb/s (default)
    Metadata:
      creation_time   : 2025-07-13T01:46:40.000000Z
      handler_name    : Core Media Audio
      encoder         : Lavc58.54.100 aac
[Parsed_overlay_4 @ 0x556125099c00] [framesync @ 0x556125099d68] Sync level 0
No more output streams to write to, finishing.
frame= 1722 fps= 26 q=-1.0 Lsize=   66955kB time=00:00:57.38 bitrate=9557.9kbits/s speed=0.861x    
[AVIOContext @ 0x55612500db40] Statistics: 0 seeks, 124 writeouts
video:65993kB audio:899kB subtitle:0kB other streams:0kB global headers:0kB muxing overhead: 0.093728%
Input file #0 (/var/www/html/project/media/video/original/07974FEE-D29E-4C3E-B60F-C8CE54F0151C.mov):
  Input stream #0:0 (audio): 2691 packets read (931842 bytes); 2690 frames decoded (2754014 samples); 
  Input stream #0:1 (video): 1722 packets read (105442028 bytes); 1722 frames decoded; 
  Total: 4413 packets (106373870 bytes) demuxed
Input file #1 (/var/www/html/project/static/images/templates/logo.png):
  Input stream #1:0 (video): 1 packets read (111578 bytes); 1 frames decoded; 
  Total: 1 packets (111578 bytes) demuxed
Output file #0 (/var/www/html/project/media/video/watermarks/07974FEE-D29E-4C3E-B60F-C8CE54F0151C.mp4):
  Output stream #0:0 (video): 1722 frames encoded; 1722 packets muxed (67577286 bytes); 
  Output stream #0:1 (audio): 2690 frames encoded (2754014 samples); 2691 packets muxed (920856 bytes); 
  Total: 4413 packets (68498142 bytes) muxed
[AVIOContext @ 0x55612507dd80] Statistics: 2 seeks, 265 writeouts
[libx264 @ 0x55612507d540] frame I:9     Avg QP:14.17  size:108339
[libx264 @ 0x55612507d540] frame P:542   Avg QP:17.13  size: 61152
[libx264 @ 0x55612507d540] frame B:1171  Avg QP:18.25  size: 28571
[libx264 @ 0x55612507d540] consecutive B-frames:  3.1% 16.4%  7.1% 73.4%
[libx264 @ 0x55612507d540] mb I  I16..4: 25.1% 39.9% 35.1%
[libx264 @ 0x55612507d540] mb P  I16..4: 23.9% 34.2%  9.1%  P16..4: 17.2%  9.4%  4.6%  0.0%  0.0%    skip: 1.7%
[libx264 @ 0x55612507d540] mb B  I16..4:  9.8% 10.9%  1.3%  B16..8: 28.0%  9.8%  1.1%  direct:18.7%  skip:20.4%  L0:44.1% L1:44.2% BI:11.7%
[libx264 @ 0x55612507d540] 8x8 transform intra:50.2% inter:34.6%
[libx264 @ 0x55612507d540] coded y,uvDC,uvAC intra: 36.3% 62.5% 16.3% inter: 12.2% 58.0% 2.1%
[libx264 @ 0x55612507d540] i16 v,h,dc,p: 42% 31% 17%  9%
[libx264 @ 0x55612507d540] i8 v,h,dc,ddl,ddr,vr,hd,vl,hu: 24% 31% 25%  3%  4%  3%  4%  2%  4%
[libx264 @ 0x55612507d540] i4 v,h,dc,ddl,ddr,vr,hd,vl,hu: 25% 30% 15%  4%  6%  5%  6%  3%  5%
[libx264 @ 0x55612507d540] i8c dc,h,v,p: 44% 28% 22%  7%
[libx264 @ 0x55612507d540] Weighted P-Frames: Y:13.3% UV:12.4%
[libx264 @ 0x55612507d540] kb/s:9418.34
[aac @ 0x55612509cb80] Qavg: 194.507
[AVIOContext @ 0x556125016ac0] Statistics: 168133464 bytes read, 3430 seeks
[AVIOContext @ 0x556125012f00] Statistics: 111578 bytes read, 0 seeks
